<svg width="64" height="64" viewBox="0 0 64 64" fill="none" xmlns="http://www.w3.org/2000/svg">
<g clip-path="url(#clip0_8748:93584)">
<path fill-rule="evenodd" clip-rule="evenodd" d="M9.75508 32.9591L24.4996 17.8607C28.4325 13.8334 34.8855 13.7569 38.9128 17.6898C38.9704 17.7461 39.0274 17.803 39.0837 17.8607L39.2442 18.025C43.2099 22.0859 43.2099 28.5696 39.2442 32.6304L24.4996 47.7289C20.5667 51.7561 14.1137 51.8327 10.0864 47.8998C10.0288 47.8435 9.97183 47.7865 9.91554 47.7289L9.75508 47.5645C5.78935 43.5036 5.78935 37.02 9.75508 32.9591Z" fill="#12D2AC"/>
<path fill-rule="evenodd" clip-rule="evenodd" d="M39.0958 17.8608L53.6798 32.7948C57.7348 36.9471 57.7348 43.5767 53.6798 47.7289C49.7469 51.7562 43.2939 51.8327 39.2667 47.8998C39.209 47.8436 39.1521 47.7866 39.0958 47.7289L24.5117 32.7948C20.4567 28.6426 20.4567 22.013 24.5117 17.8608C28.4446 13.8335 34.8976 13.757 38.9249 17.6898C38.9825 17.7461 39.0395 17.8031 39.0958 17.8608Z" fill="#307AF2"/>
<path fill-rule="evenodd" clip-rule="evenodd" d="M39.2641 18.0433L46.3702 25.3199L31.7861 40.254L17.2021 25.3199L24.3081 18.0433C28.3413 13.9133 34.9589 13.8349 39.0889 17.8681C39.148 17.9258 39.2064 17.9842 39.2641 18.0433Z" fill="#0057FE"/>
</g>
<defs>
<clipPath id="clip0_8748:93584">
<rect width="52" height="38" fill="white" transform="translate(6 13)"/>
</clipPath>
</defs>
</svg>
