<?xml version="1.0" encoding="UTF-8" standalone="no" ?>
<!DOCTYPE svg PUBLIC "-//W3C//DTD SVG 1.1//EN" "http://www.w3.org/Graphics/SVG/1.1/DTD/svg11.dtd">
<svg xmlns="http://www.w3.org/2000/svg" xmlns:xlink="http://www.w3.org/1999/xlink" version="1.1" width="190" height="190" viewBox="0 0 63.33 63.33" xml:space="preserve">
<desc>Created with Fabric.js 3.6.3</desc>
<defs>
</defs>
<g transform="matrix(1 0 0 1 32 39.33)"  >
<g style=""   >
		<g transform="matrix(1 0 0 1 -7.5 0.8)" clip-path="url(#CLIPPATH_11)"  >
<clipPath id="CLIPPATH_11" >
	<rect transform="matrix(1 0 0 1 7.5 -0.79)" x="-26" y="-19" rx="0" ry="0" width="52" height="38" />
</clipPath>
<path style="stroke: none; stroke-width: 1; stroke-dasharray: none; stroke-linecap: butt; stroke-dashoffset: 0; stroke-linejoin: miter; stroke-miterlimit: 4; fill: rgb(18,210,172); fill-rule: evenodd; opacity: 1;"  transform=" translate(-24.5, -32.79)" d="M 9.75508 32.9591 L 24.4996 17.8607 C 28.4325 13.8334 34.8855 13.7569 38.9128 17.6898 C 38.9704 17.7461 39.0274 17.803 39.0837 17.8607 L 39.2442 18.025 C 43.2099 22.0859 43.2099 28.5696 39.2442 32.6304 L 24.4996 47.7289 C 20.5667 51.7561 14.1137 51.8327 10.0864 47.8998 C 10.0288 47.8435 9.97183 47.7865 9.91554 47.7289 L 9.75508 47.5645 C 5.78935 43.5036 5.78935 37.02 9.75508 32.9591 Z" stroke-linecap="round" />
</g>
		<g transform="matrix(1 0 0 1 7.1 0.8)" clip-path="url(#CLIPPATH_12)"  >
<clipPath id="CLIPPATH_12" >
	<rect transform="matrix(1 0 0 1 -7.1 -0.79)" x="-26" y="-19" rx="0" ry="0" width="52" height="38" />
</clipPath>
<path style="stroke: none; stroke-width: 1; stroke-dasharray: none; stroke-linecap: butt; stroke-dashoffset: 0; stroke-linejoin: miter; stroke-miterlimit: 4; fill: rgb(48,122,242); fill-rule: evenodd; opacity: 1;"  transform=" translate(-39.1, -32.79)" d="M 39.0958 17.8608 L 53.6798 32.7948 C 57.7348 36.9471 57.7348 43.5767 53.6798 47.7289 C 49.7469 51.7562 43.2939 51.8327 39.2667 47.8998 C 39.209 47.8436 39.1521 47.7866 39.0958 47.7289 L 24.5117 32.7948 C 20.4567 28.6426 20.4567 22.013 24.5117 17.8608 C 28.4446 13.8335 34.8976 13.757 38.9249 17.6898 C 38.9825 17.7461 39.0395 17.8031 39.0958 17.8608 Z" stroke-linecap="round" />
</g>
		<g transform="matrix(1 0 0 1 -0.22 -4.43)" clip-path="url(#CLIPPATH_13)"  >
<clipPath id="CLIPPATH_13" >
	<rect transform="matrix(1 0 0 1 0.21 4.43)" x="-26" y="-19" rx="0" ry="0" width="52" height="38" />
</clipPath>
<path style="stroke: none; stroke-width: 1; stroke-dasharray: none; stroke-linecap: butt; stroke-dashoffset: 0; stroke-linejoin: miter; stroke-miterlimit: 4; fill: rgb(0,87,254); fill-rule: evenodd; opacity: 1;"  transform=" translate(-31.79, -27.57)" d="M 39.2641 18.0433 L 46.3702 25.3199 L 31.7861 40.254 L 17.2021 25.3199 L 24.3081 18.0433 C 28.3413 13.9133 34.9589 13.8349 39.0889 17.8681 C 39.148 17.9258 39.2064 17.9842 39.2641 18.0433 Z" stroke-linecap="round" />
</g>
</g>
</g>
<g transform="matrix(-1 0 0 -1 31.64 25.72)"  >
<g style=""   >
		<g transform="matrix(1 0 0 1 -7.5 0.8)" clip-path="url(#CLIPPATH_14)"  >
<clipPath id="CLIPPATH_14" >
	<rect transform="matrix(1 0 0 1 7.5 -0.79)" x="-26" y="-19" rx="0" ry="0" width="52" height="38" />
</clipPath>
<path style="stroke: none; stroke-width: 1; stroke-dasharray: none; stroke-linecap: butt; stroke-dashoffset: 0; stroke-linejoin: miter; stroke-miterlimit: 4; fill: rgb(18,210,172); fill-rule: evenodd; opacity: 1;"  transform=" translate(-24.5, -32.79)" d="M 9.75508 32.9591 L 24.4996 17.8607 C 28.4325 13.8334 34.8855 13.7569 38.9128 17.6898 C 38.9704 17.7461 39.0274 17.803 39.0837 17.8607 L 39.2442 18.025 C 43.2099 22.0859 43.2099 28.5696 39.2442 32.6304 L 24.4996 47.7289 C 20.5667 51.7561 14.1137 51.8327 10.0864 47.8998 C 10.0288 47.8435 9.97183 47.7865 9.91554 47.7289 L 9.75508 47.5645 C 5.78935 43.5036 5.78935 37.02 9.75508 32.9591 Z" stroke-linecap="round" />
</g>
		<g transform="matrix(1 0 0 1 7.1 0.8)" clip-path="url(#CLIPPATH_15)"  >
<clipPath id="CLIPPATH_15" >
	<rect transform="matrix(1 0 0 1 -7.1 -0.79)" x="-26" y="-19" rx="0" ry="0" width="52" height="38" />
</clipPath>
<path style="stroke: none; stroke-width: 1; stroke-dasharray: none; stroke-linecap: butt; stroke-dashoffset: 0; stroke-linejoin: miter; stroke-miterlimit: 4; fill: rgb(48,122,242); fill-rule: evenodd; opacity: 1;"  transform=" translate(-39.1, -32.79)" d="M 39.0958 17.8608 L 53.6798 32.7948 C 57.7348 36.9471 57.7348 43.5767 53.6798 47.7289 C 49.7469 51.7562 43.2939 51.8327 39.2667 47.8998 C 39.209 47.8436 39.1521 47.7866 39.0958 47.7289 L 24.5117 32.7948 C 20.4567 28.6426 20.4567 22.013 24.5117 17.8608 C 28.4446 13.8335 34.8976 13.757 38.9249 17.6898 C 38.9825 17.7461 39.0395 17.8031 39.0958 17.8608 Z" stroke-linecap="round" />
</g>
		<g transform="matrix(1 0 0 1 -0.22 -4.43)" clip-path="url(#CLIPPATH_16)"  >
<clipPath id="CLIPPATH_16" >
	<rect transform="matrix(1 0 0 1 0.21 4.43)" x="-26" y="-19" rx="0" ry="0" width="52" height="38" />
</clipPath>
<path style="stroke: none; stroke-width: 1; stroke-dasharray: none; stroke-linecap: butt; stroke-dashoffset: 0; stroke-linejoin: miter; stroke-miterlimit: 4; fill: rgb(0,87,254); fill-rule: evenodd; opacity: 1;"  transform=" translate(-31.79, -27.57)" d="M 39.2641 18.0433 L 46.3702 25.3199 L 31.7861 40.254 L 17.2021 25.3199 L 24.3081 18.0433 C 28.3413 13.9133 34.9589 13.8349 39.0889 17.8681 C 39.148 17.9258 39.2064 17.9842 39.2641 18.0433 Z" stroke-linecap="round" />
</g>
</g>
</g>
</svg>